<?xml version="1.0" encoding="UTF-8"?>
<svg width="119px" height="114px" viewBox="0 0 119 114" version="1.1" xmlns="http://www.w3.org/2000/svg" xmlns:xlink="http://www.w3.org/1999/xlink">
    <!-- Generator: Sketch 58 (84663) - https://sketch.com -->
    <title>Apply</title>
    <desc>Created with Sketch.</desc>
    <g id="Page-1" stroke="none" stroke-width="1" fill="none" fill-rule="evenodd">
        <path d="M110,0 C114.970563,-9.13077564e-16 119,4.02943725 119,9 L119,105 C119,109.970563 114.970563,114 110,114 L9,114 C4.02943725,114 6.08718376e-16,109.970563 0,105 L0,9 C-6.08718376e-16,4.02943725 4.02943725,9.13077564e-16 9,0 L110,0 Z M113,74 L62,74 L62,86 L113,86 L113,74 Z M30.1278644,25 C20.9387862,25 13.4895665,32.6111593 13.4895665,42 C13.4895665,47.9132948 16.4444877,53.1214274 20.9279762,56.1654846 C11.2376063,61.4459153 7.10771857,75.3050142 7.00208316,85.595671 L7,86 L53,86 L52.997577,85.5861475 C52.8796066,75.467826 48.4502818,61.9046981 38.9159587,56.4379146 C43.6294064,53.436484 46.7661622,48.0925196 46.7661622,42 C46.7661622,32.6111593 39.3169425,25 30.1278644,25 Z M113,50 L62,50 L62,62 L113,62 L113,50 Z M113,26 L62,26 L62,37 L113,37 L113,26 Z" id="Apply" fill="#FFFFFF"></path>
    </g>
</svg>