<?xml version="1.0" encoding="UTF-8"?>
<svg width="634px" height="378px" viewBox="0 0 634 378" version="1.1" xmlns="http://www.w3.org/2000/svg" xmlns:xlink="http://www.w3.org/1999/xlink">
    <!-- Generator: Sketch 58 (84663) - https://sketch.com -->
    <title>Flowchart</title>
    <desc>Created with Sketch.</desc>
    <defs>
        <linearGradient x1="-6.66649185%" y1="59.6530475%" x2="89.7383895%" y2="31.6839728%" id="linearGradient-1">
            <stop stop-color="#80DBFF" offset="0%"></stop>
            <stop stop-color="#7FDBFF" offset="8.42862938%"></stop>
            <stop stop-color="#49B5FD" offset="100%"></stop>
        </linearGradient>
    </defs>
    <g id="Page-1" stroke="none" stroke-width="1" fill="none" fill-rule="evenodd">
        <g id="Flowchart" transform="translate(0.000000, -5.000000)">
            <g id="Download" transform="translate(444.000000, 0.000000)">
                <text id="4.-Download" font-family="Arial-BoldMT, Arial" font-size="30" font-weight="bold" letter-spacing="1.48333333" fill="#000000">
                    <tspan x="0" y="27">4. Download</tspan>
                </text>
                <g transform="translate(84.000000, 47.000000)">
                    <ellipse id="Oval" stroke="#EE7882" stroke-width="17" cx="36.5" cy="37" rx="36.5" ry="37"></ellipse>
                    <g id="Group" transform="translate(37.000000, 36.500000) rotate(90.000000) translate(-37.000000, -36.500000) translate(12.000000, 20.000000)" fill="#EE7882">
                        <rect id="Rectangle" x="0" y="11.9344592" width="37.6623377" height="9.13108157"></rect>
                        <polygon id="Rectangle" transform="translate(38.613861, 11.558939) rotate(45.000000) translate(-38.613861, -11.558939) " points="27.2428165 7.11858675 49.9933965 7.09688948 49.9849063 15.9992903 27.2343263 16.0209876"></polygon>
                        <polygon id="Rectangle" transform="translate(38.613861, 21.441061) rotate(-45.000000) translate(-38.613861, -21.441061) " points="27.2343263 16.9790124 49.9849063 17.0007097 49.9933965 25.9031105 27.2428165 25.8814133"></polygon>
                    </g>
                </g>
            </g>
            <g id="Request" transform="translate(355.000000, 259.000000)">
                <text id="3.-Request" font-family="Arial-BoldMT, Arial" font-size="30" font-weight="bold" letter-spacing="1.48333333" fill="#000000">
                    <tspan x="0" y="111">3. Request</tspan>
                </text>
                <path d="M112,0 C116.970563,7.91641557e-15 121,4.02943725 121,9 L121,52.2557072 C121,57.2262699 116.970563,61.2557072 112,61.2557072 L89.203,61.255 L76.3781513,74 L63.552,61.255 L40,61.2557072 C35.0294373,61.2557072 31,57.2262699 31,52.2557072 L31,9 C31,4.02943725 35.0294373,-4.41599295e-15 40,0 L112,0 Z M108.613281,8.875 L101.933594,8.875 C100.996089,11.4922006 99.2675907,13.7822167 96.7480469,15.7451172 C94.228503,17.7080176 91.894542,19.0410121 89.7460938,19.7441406 L89.7460938,19.7441406 L89.7460938,27.2148438 C93.8281454,25.8671808 97.3730318,23.7871234 100.380859,20.9746094 L100.380859,20.9746094 L100.380859,52 L108.613281,52 L108.613281,8.875 Z M57,9 C50.6881743,9 45.5714286,14.2046898 45.5714286,20.625 C45.5714286,24.8231089 47.7591359,28.5014692 51.0381996,30.5429137 C44.0726107,33.9754296 41.0980436,43.540635 41.0023888,50.6467817 L41,51 L73,51 L72.9973225,50.6450769 C72.8919504,43.6234515 69.6731597,34.2018758 62.7575743,30.6691815 C66.1496956,28.6529722 68.4285714,24.9096902 68.4285714,20.625 C68.4285714,14.2046898 63.3118257,9 57,9 Z" fill="#EE7882"></path>
            </g>
            <path d="M114,290.595245 C228.683948,293.581971 256.247905,141.5826 315.073539,136.016532 C373.899172,130.450464 318.040094,284.802119 386.347097,264.825825 C454.6541,244.84953 454.209173,91 521.846726,91" id="Path-15" stroke="url(#linearGradient-1)" stroke-width="18"></path>
            <g id="Login" transform="translate(0.000000, 234.000000)">
                <g>
                    <path d="M72.4883986,92.3867077 C93.4126183,92.3362063 110.415989,75.3328353 110.466603,54.4086156 C110.516992,33.4843958 93.5955,16.5629037 72.6712802,16.6132923 C51.7470605,16.6639065 34.7436895,33.6672775 34.6931881,54.5914972" id="Oval" stroke="#EE7882" stroke-width="17" transform="translate(72.579896, 54.500000) rotate(45.000000) translate(-72.579896, -54.500000) "></path>
                    <g id="Group" transform="translate(0.000000, 35.000000)" fill="#EE7882">
                        <rect id="Rectangle" x="0" y="14.9065089" width="46.6534653" height="10.7807487"></rect>
                        <polygon id="Rectangle" transform="translate(47.881188, 14.010695) rotate(45.000000) translate(-47.881188, -14.010695) " points="34.0012707 8.72483719 61.8954837 8.38142638 61.7611055 19.2965532 33.8668926 19.639964"></polygon>
                        <polygon id="Rectangle" transform="translate(47.881188, 25.989305) rotate(-45.000000) translate(-47.881188, -25.989305) " points="33.8668926 20.360036 61.7611055 20.7034468 61.8954837 31.6185736 34.0012707 31.2751628"></polygon>
                    </g>
                </g>
                <text id="1.-Login" font-family="Arial-BoldMT, Arial" font-size="30" font-weight="bold" letter-spacing="1.48333333" fill="#000000">
                    <tspan x="0" y="142">1. Login</tspan>
                </text>
            </g>
            <g id="Apply" transform="translate(190.000000, 27.000000)">
                <path d="M105,41 C109.970563,41 114,45.0294373 114,50 L114,106 C114,110.970563 109.970563,115 105,115 L45,115 C40.0294373,115 36,110.970563 36,106 L36,50 C36,45.0294373 40.0294373,41 45,41 L105,41 Z M111,90 L77,90 L77,97 L111,97 L111,90 Z M56.0833898,57 C50.0905127,57 45.232326,61.9909241 45.232326,68.147541 C45.232326,72.0249659 47.1593039,75.4400239 50.0833653,77.4364368 C43.7908684,80.8841295 41.0935367,89.9086912 41.0023958,96.64748 L41,97 L71,97 L70.9973361,96.6471941 C70.897828,90.0212306 68.0075385,81.1855426 61.8160688,77.6141851 C64.8893259,75.6458768 66.9344536,72.1420669 66.9344536,68.147541 C66.9344536,61.9909241 62.0762669,57 56.0833898,57 Z M111,75 L77,75 L77,82 L111,82 L111,75 Z M111,57 L77,57 L77,64 L111,64 L111,57 Z" fill="#EE7882"></path>
                <text id="2.-Apply" font-family="Arial-BoldMT, Arial" font-size="30" font-weight="bold" letter-spacing="1.48333333" fill="#000000">
                    <tspan x="0" y="27">2. Apply</tspan>
                </text>
            </g>
        </g>
    </g>
</svg>