<?xml version="1.0" encoding="UTF-8"?>
<svg width="180px" height="179px" viewBox="0 0 180 179" version="1.1" xmlns="http://www.w3.org/2000/svg" xmlns:xlink="http://www.w3.org/1999/xlink">
    <!-- Generator: Sketch 58 (84663) - https://sketch.com -->
    <title>Profile_Shadow</title>
    <desc>Created with Sketch.</desc>
    <defs>
        <circle id="path-1" cx="86.5" cy="86.5" r="86.5"></circle>
        <path d="M55.4156211,24.2870447 C64.4105579,18.4394119 82.0829462,23.9406834 83.822074,18.1531073 C85.5612018,12.3655312 68.8919989,2.84217094e-14 55.4156211,2.84217094e-14 C43.974448,2.84217094e-14 32.8525103,-0.0678600591 29.119981,2.24290573 C25.3874518,4.55367151 29.4927821,8.6263456 23.9559181,9.93471084 C18.4190541,11.2430761 26.5103324,41.7043935 40.6060745,38.6201094 C54.7018166,35.5358254 46.4206843,30.1346774 55.4156211,24.2870447 Z" id="path-3"></path>
    </defs>
    <g id="Page-1" stroke="none" stroke-width="1" fill="none" fill-rule="evenodd">
        <g id="Profile_Shadow" transform="translate(3.833516, 3.000000)">
            <mask id="mask-2" fill="white">
                <use xlink:href="#path-1"></use>
            </mask>
            <use id="Oval" stroke="#F1FAEE" stroke-width="6" fill="#F1FAEE" xlink:href="#path-1"></use>
            <path d="M51.7899024,52.0008426 L55.5821048,52 C69.0584825,52 85.7276855,64.3655312 83.9885576,70.1531073 C83.5347512,71.663312 81.996062,72.4048681 79.8097516,72.7799836 C80.1785598,73.9425129 80.0011168,75.1935338 79.7152907,76.339373 C77.4163383,102.470404 74.3177667,115.535303 70.4200685,115.535303 C66.4219703,115.535303 57.9498019,113.437832 45.0035633,109.242889 C53.5006489,114.941019 59.1996217,117.790085 62.1004816,117.790085 L65.850132,135.025867 C83.869931,140.744021 93.7463913,146.19121 95.4795128,151.367434 C97.2126344,156.543657 99.3861302,169.791734 102,191.111663 L6,190.535243 L1.63251107,168.820034 C-1.83999261,150.273345 0.856359209,140.023764 9.72156653,138.071292 C18.5867739,136.118819 26.9046425,135.103678 34.6751726,135.025867 L36.7627259,103.041845 C36.0380874,101.281755 35.3532242,99.5766395 34.7081364,97.9264995 C26.1179375,97.8065843 26.4069509,92.9500695 26.0290919,86.7922805 C25.8944965,84.5988419 26.2286222,82.9932019 26.9963975,81.833228 C22.3347962,73.6410378 20.8535117,62.7071521 24.1224018,61.9347108 C29.6592658,60.6263456 25.5539354,56.5536715 29.2864647,54.2429057 C32.6042685,52.1888917 41.7606172,52.0142857 51.7899024,52.0008426 L55.5821048,52 Z" id="Shadow" fill="#857575" mask="url(#mask-2)"></path>
            <g id="Person" mask="url(#mask-2)">
                <g transform="translate(35.166484, 39.000000)" id="Group-3">
                    <g transform="translate(0.166484, 0.000000)">
                        <path d="M1.46602743,116.820034 C-2.00647625,98.2733445 0.689875566,88.0237638 9.55508289,86.0712915 C18.4202902,84.1188192 26.7381589,83.1036778 34.5086889,83.0258673 L36.5962423,51.0418452 C26.1442965,25.6548843 23.9673086,11.7050998 30.0652786,9.19249195 C39.2122336,5.4235801 46.1894323,-0.140562982 61.9339979,5.4235801 C72.430375,9.13300882 78.3608429,14.7569436 79.7254018,22.2953843 C77.4089553,49.7886636 74.2516831,63.5353033 70.2535849,63.5353033 C66.2554867,63.5353033 57.7833183,61.4378317 44.8370796,57.2428885 C53.3341653,62.9410193 59.0331381,65.7900847 61.9339979,65.7900847 L65.6836484,83.0258673 C83.7034473,88.7440212 93.5799076,94.19121 95.3130292,99.3674336 C97.0461508,104.543657 99.2196465,117.791734 101.833516,139.111663 L5.83351636,138.535243 L1.46602743,116.820034 Z" id="Path" fill="#D8D8D8"></path>
                        <path d="M52.228872,27.0712915 C59.2302795,25.3821129 64.4836071,24.5375236 67.9888547,24.5375236 C75.4968192,24.5375236 78.734855,27.2290461 79.054667,26.0916229 C79.7745076,23.5314834 81.399059,19.511623 75.9595927,17.5557959 C70.5201263,15.5999688 61.6270232,15.6263735 57.9862367,18.5162095 C55.5590457,20.4427668 53.6399241,23.2944608 52.228872,27.0712915 Z" id="Path-4" fill="#C2BEBE"></path>
                        <path d="M70.8335164,31.0712915 C72.6566654,37.0084082 73.6471339,40.8266011 73.8049219,42.5258701 C73.96271,44.2251391 73.4674757,45.7402795 72.3192191,47.0712915" id="Path-7" stroke="#979797" stroke-width="2"></path>
                        <mask id="mask-4" fill="white">
                            <use xlink:href="#path-3"></use>
                        </mask>
                        <use id="Path-2" fill="#000000" xlink:href="#path-3"></use>
                        <path d="M43.137328,33.2339558 C42.1547262,29.1255129 39.5338482,27.0712915 35.274694,27.0712915 C28.8859627,27.0712915 25.4799447,28.5561926 25.8626083,34.7922805 C26.2452719,41.0283684 25.9439962,45.9298793 34.8748341,45.9298793 C40.8287261,45.9298793 43.5828907,41.6979048 43.137328,33.2339558 Z" id="Path-8" fill="#D8D8D8"></path>
                        <path d="M33.8335164,32.0712915 C38.337521,33.7482613 39.8388559,36.0368268 38.337521,38.9369882" id="Path-9" stroke="#979797" stroke-width="2"></path>
                        <polyline id="Path-15" stroke="#979797" stroke-width="2" points="47.8335164 92.5325386 57.1244306 98.9133222 61.6449364 90.0712915"></polyline>
                        <path d="M36.8335164,84.0712915 C43.8851841,86.0712915 52.8851841,86.5712915 63.8335164,85.5712915" id="Path-13" stroke="#979797" stroke-width="2"></path>
                        <path d="M27.599044,129.79866 C28.0580079,114.271349 26.193265,104.671795 22.0048153,101" id="Path-16" stroke="#F1FAEE" stroke-width="2"></path>
                    </g>
                </g>
            </g>
        </g>
    </g>
</svg>
