<?xml version="1.0" encoding="UTF-8"?>
<svg width="629px" height="397px" viewBox="0 0 629 397" version="1.1" xmlns="http://www.w3.org/2000/svg" xmlns:xlink="http://www.w3.org/1999/xlink">
    <!-- Generator: Sketch 58 (84663) - https://sketch.com -->
    <title>Profile_Graphic</title>
    <desc>Created with Sketch.</desc>
    <defs>
        <circle id="path-1" cx="247.566763" cy="166.524731" r="86.5"></circle>
    </defs>
    <g id="Page-1" stroke="none" stroke-width="1" fill="none" fill-rule="evenodd">
        <g id="Profile_Graphic" transform="translate(0.933237, -0.024731)">
            <path d="M93.5073421,0.0696693077 C248.840367,-5.27677919 477.35218,298.714026 468.449085,353.024731 C459.545991,407.335437 142.614514,404.464097 75.5271524,376.396707 C8.43979061,348.329317 -61.8256831,5.4161178 93.5073421,0.0696693077 Z" id="Path-4" fill="#49B5FD"></path>
            <path d="M62.0544495,108.352162 C105.724263,0.972885517 285.11161,-23.4741408 399.212662,80.8337939 C513.313714,185.141729 616.063419,154.569144 627.046622,249.134899 C638.029825,343.700655 560.774479,359.759891 373.535912,350.899927 C186.297345,342.039964 18.3846356,215.731438 62.0544495,108.352162 Z" id="Path-2" fill="#A2D9FE"></path>
            <mask id="mask-2" fill="white">
                <use xlink:href="#path-1"></use>
            </mask>
            <use id="Oval" stroke="#F1FAEE" stroke-width="6" fill="#F1FAEE" xlink:href="#path-1"></use>
            <g id="Person" mask="url(#mask-2)">
                <g transform="translate(188.066763, 118.588875)">
                    <path d="M31.6049898,93.5030695 C47.6212475,93.5030695 40.6150356,65.3760302 58,61.4358569 C75.3849644,57.4956837 45.0162577,32.4358569 29,32.4358569 C12.9837423,32.4358569 8.8817842e-14,45.4195992 8.8817842e-14,61.4358569 C8.8817842e-14,77.4521147 15.588732,93.5030695 31.6049898,93.5030695 Z" id="Oval" stroke="none" fill="#000000" fill-rule="evenodd"></path>
                    <polygon id="Path-11" stroke="#3FA3E6" stroke-width="1" fill="none" points="84.5643113 55.645965 90.8477997 59.6723871 90.8477997 48.4142414 83 42.4358569"></polygon>
                    <path d="M16.0090502,116.02546 C15.8586939,108.574755 17.5817974,103.635537 21.1783607,101.207806 C26.5732056,97.5662092 41.8392974,88.6531835 41.8392974,82.7054621 C41.8392974,78.7403144 41.8392974,71.1658655 41.8392974,59.9821153 C41.8392974,52.5478048 40.471873,48.8306496 37.7370241,48.8306496 C30.5871126,48.8306496 30.95184,35.3841021 30.95184,30.3208996 C30.95184,18.5887548 39.9607735,10.7583821 48.6582251,8.83221226 C57.3556767,6.9060424 78.2890851,3.85830645 84.2955768,24.0921827 C89.792912,42.6108799 85.6241038,68.7275855 80.3125541,70.3535452 C75.0010044,71.9795049 60.1314696,65.0882269 51.5730809,61.638466 C51.5730809,61.638466 54.2136886,70.9195449 72.3925528,73.9916886 L75.551298,92.7896144 C77.1969901,94.7265296 81.6180857,99.0833994 88.8145846,105.860224 C96.0110836,112.637048 104.367223,124.19948 113.883004,140.54752 L16.0090502,140.54752 L16.0090502,116.02546 Z" id="Path-5" stroke="none" fill="#D8D8D8" fill-rule="evenodd"></path>
                    <path d="M28.4869016,36.2436897 C29.572193,37.7995081 36.0323798,37.7995081 47.8674619,36.2436897 C52.8563787,33.1608595 54.8659427,30.3395891 53.8961541,27.7798784 C52.9263654,25.2201678 49.1383155,19.761516 42.5320044,11.403923 C35.8346026,10.5417128 31.3721782,12.4791157 29.1447314,17.2161318 C25.8035612,24.3216559 26.8589645,33.9099621 28.4869016,36.2436897 Z" id="Path-3" stroke="none" fill="#000000" fill-rule="evenodd"></path>
                    <path d="M47.984942,36.6777419 C47.0023402,32.569299 44.3814622,30.5150776 40.122308,30.5150776 C33.7335767,30.5150776 30.3275587,31.9999787 30.7102223,38.2360666 C31.092886,44.4721545 30.7916102,49.3736654 39.7224482,49.3736654 C45.6763401,49.3736654 48.4305048,45.1416909 47.984942,36.6777419 Z" id="Path-8" stroke="none" fill="#D8D8D8" fill-rule="evenodd"></path>
                    <path d="M54,22.68568 C61.4475721,29.1766867 68.1590639,31.5903831 74.1344753,29.9267693 C83.0975925,27.4313486 85.1351736,28.940182 85.1351736,27.3729529 C85.1351736,25.8057237 85.1351736,20.4371373 83,19.558183 C81.576551,18.9722135 71.9098843,20.0147125 54,22.68568 Z" id="Path-12" stroke="none" fill="#C2BEBE" fill-rule="evenodd"></path>
                    <path d="M43.8145846,10.3822926 C49.6718575,19.8012338 55.2326003,24.929344 60.496813,25.766623 C68.3931321,27.0225416 81.9800959,22.8781052 86.5364217,21.2208168 C89.5739723,20.1159578 89.5739723,16.5031164 86.5364217,10.3822926 C71.4553292,2.17133615 61.4161964,-1.16932273 56.4190232,0.36031594 C51.42185,1.88995461 47.2203705,5.23061348 43.8145846,10.3822926 Z" id="Path-6" stroke="none" fill="#000000" fill-rule="evenodd"></path>
                    <path d="M77,37.4358569 C78.823149,43.3729736 79.8136175,47.1911665 79.9714056,48.8904355 C80.1291936,50.5897045 79.6339594,52.1048449 78.4857028,53.4358569" id="Path-7" stroke="#979797" stroke-width="2" fill="none"></path>
                    <path d="M38.8528419,35.1966713 C43.3568465,36.873641 44.8581814,39.1622066 43.3568465,42.062368" id="Path-9" stroke="#979797" stroke-width="2" fill="none"></path>
                    <polygon id="Path-10" stroke="#49B5FD" stroke-width="1" fill="none" points="37.1131144 43.4358569 32 52.630358 37.1131144 62.6723871 41.7813547 52.630358"></polygon>
                    <path d="M43,92.4358569 C50.0516677,94.4358569 59.0516677,94.9358569 70,93.9358569" id="Path-13" stroke="#979797" stroke-width="2" fill="none"></path>
                    <path d="M36.8906773,108.332758 C39.4933517,114.003573 40.3152269,122.704606 39.356303,134.435857 C38.397379,146.167108 51.945278,156.739707 80,166.153654" id="Path-14" stroke="#F1FAEE" stroke-width="2" fill="none"></path>
                </g>
            </g>
            <g id="Profile_Info" transform="translate(386.066763, 45.024731)" fill="#E63746">
                <rect id="Rectangle" x="0" y="32" width="140" height="20" rx="9"></rect>
                <rect id="Rectangle" x="24" y="0" width="92" height="20" rx="9"></rect>
                <rect id="Rectangle" x="24" y="128" width="92" height="20" rx="9"></rect>
                <rect id="Rectangle" x="0" y="64" width="140" height="20" rx="9"></rect>
                <rect id="Rectangle" x="0" y="96" width="140" height="20" rx="9"></rect>
            </g>
        </g>
    </g>
</svg>