<svg id="Puzzle" xmlns="http://www.w3.org/2000/svg" xmlns:xlink="http://www.w3.org/1999/xlink" viewBox="0 0 592 453.03"><defs><style>.cls-1,.cls-12,.cls-2,.cls-25,.cls-26,.cls-3{fill:none;}.cls-1{clip-rule:evenodd;}.cls-3{fill-rule:evenodd;}.cls-4{clip-path:url(#clip-path);}.cls-5{fill:#ee7882;}.cls-6{clip-path:url(#clip-path-2);}.cls-7{fill:#eb5c68;}.cls-8{clip-path:url(#clip-path-3);}.cls-9{isolation:isolate;}.cls-10{clip-path:url(#clip-path-4);}.cls-11{clip-path:url(#clip-path-5);}.cls-12,.cls-26{stroke:#f1faee;}.cls-12,.cls-25,.cls-26{stroke-miterlimit:10;}.cls-12{stroke-width:6px;}.cls-13{clip-path:url(#clip-path-6);}.cls-14{clip-path:url(#clip-path-8);}.cls-15{clip-path:url(#clip-path-9);}.cls-16{fill:#f1faee;}.cls-17{clip-path:url(#clip-path-10);}.cls-18{fill:#d8d8d8;}.cls-19{clip-path:url(#clip-path-12);}.cls-20{fill:#c2bebe;}.cls-21{clip-path:url(#clip-path-14);}.cls-22{clip-path:url(#clip-path-16);}.cls-23{clip-path:url(#clip-path-17);}.cls-24{clip-path:url(#clip-path-18);}.cls-25{stroke:#979797;}.cls-25,.cls-26{stroke-width:2px;}.cls-27{clip-path:url(#clip-path-21);}.cls-28{clip-path:url(#clip-path-22);}.cls-29{clip-path:url(#clip-path-23);}.cls-30{clip-path:url(#clip-path-26);}.cls-31{clip-path:url(#clip-path-27);}.cls-32{clip-path:url(#clip-path-34);}.cls-33{clip-path:url(#clip-path-35);}.cls-34{clip-path:url(#clip-path-36);}.cls-35{clip-path:url(#clip-path-40);}.cls-36{clip-path:url(#clip-path-49);}.cls-37{clip-path:url(#clip-path-50);}.cls-38{clip-path:url(#clip-path-51);}.cls-39{clip-path:url(#clip-path-52);}.cls-40{clip-path:url(#clip-path-53);}.cls-41{clip-path:url(#clip-path-55);}.cls-42{clip-path:url(#clip-path-56);}.cls-43{clip-path:url(#clip-path-57);}.cls-44{clip-path:url(#clip-path-59);}.cls-45{clip-path:url(#clip-path-62);}.cls-46{clip-path:url(#clip-path-64);}.cls-47{clip-path:url(#clip-path-65);}.cls-48{clip-path:url(#clip-path-66);}</style><clipPath id="clip-path" transform="translate(-181.58 -201.5)"><path class="cls-1" d="M210,400.5v-166"/></clipPath><clipPath id="clip-path-2" transform="translate(-181.58 -201.5)"><path class="cls-1" d="M210,566.5v-166"/></clipPath><clipPath id="clip-path-3" transform="translate(-181.58 -201.5)"><path class="cls-1" d="M574.58,455.53v166a28,28,0,0,1-28,28h-166v-65a32,32,0,0,0,0-64v-65h65a32,32,0,0,1,64-.53v.53Z"/></clipPath><clipPath id="clip-path-4" transform="translate(-181.58 -201.5)"><rect class="cls-2" x="271.58" y="346.53" width="308" height="308"/></clipPath><clipPath id="clip-path-5" transform="translate(-181.58 -201.5)"><rect class="cls-2" x="380.58" y="423.53" width="194" height="226"/></clipPath><clipPath id="clip-path-6" transform="translate(-181.58 -201.5)"><circle class="cls-2" cx="381.08" cy="456.03" r="79.5"/></clipPath><clipPath id="clip-path-8" transform="translate(-181.58 -201.5)"><rect class="cls-2" x="271.58" y="346.53" width="219" height="219"/></clipPath><clipPath id="clip-path-9" transform="translate(-181.58 -201.5)"><rect class="cls-2" x="380.58" y="423.53" width="80" height="112"/></clipPath><clipPath id="clip-path-10" transform="translate(-181.58 -201.5)"><path class="cls-1" d="M427.23,521.17q4.8-25.63-7.45-28.34a112.3,112.3,0,0,0-23-2.8l-1.92-29.47q14.44-35.1,6-38.56c-8.43-3.48-14.86-8.6-29.37-3.48q-14.52,5.13-16.4,15.55,3.21,38,8.73,38t23.42-5.8q-11.75,7.88-15.75,7.88L368.05,490q-24.92,7.91-27.3,15.06t-6,36.62l88.47-.53Z"/></clipPath><clipPath id="clip-path-12" transform="translate(-181.58 -201.5)"><path class="cls-1" d="M380.45,438.47q-9.68-2.34-14.52-2.34c-6.92,0-9.91,2.48-10.2,1.44-.66-2.36-2.16-6.07,2.85-7.87s13.21-1.78,16.56.89A17.59,17.59,0,0,1,380.45,438.47Z"/></clipPath><clipPath id="clip-path-14" transform="translate(-181.58 -201.5)"><path class="cls-1" d="M377.51,435.9c-8.29-5.38-24.57-.32-26.18-5.65s13.76-16.72,26.18-16.72c10.55,0,20.8-.07,24.24,2.06s-.35,5.88,4.76,7.09-2.36,29.27-15.35,26.43S385.8,441.29,377.51,435.9Z"/></clipPath><clipPath id="clip-path-16" transform="translate(-181.58 -201.5)"><rect class="cls-2" x="345.58" y="407.53" width="68" height="47"/></clipPath><clipPath id="clip-path-17" transform="translate(-181.58 -201.5)"><rect class="cls-2" x="380.58" y="423.53" width="32" height="29"/></clipPath><clipPath id="clip-path-18" transform="translate(-181.58 -201.5)"><path class="cls-1" d="M388.83,444.15q1.35-5.68,7.24-5.68c5.89,0,9,1.37,8.68,7.11s-.08,10.27-8.31,10.27Q388.22,455.85,388.83,444.15Z"/></clipPath><clipPath id="clip-path-21" transform="translate(-181.58 -201.5)"><path class="cls-1" d="M380.58,649.53h-166a28,28,0,0,1-28-28v-166h65a32,32,0,0,0,64,0h65v65a32,32,0,0,1,.53,64h-.53Z"/></clipPath><clipPath id="clip-path-22" transform="translate(-181.58 -201.5)"><rect class="cls-2" x="180.58" y="346.53" width="310" height="308"/></clipPath><clipPath id="clip-path-23" transform="translate(-181.58 -201.5)"><rect class="cls-2" x="186.58" y="455.53" width="226" height="194"/></clipPath><clipPath id="clip-path-26" transform="translate(-181.58 -201.5)"><rect class="cls-2" x="270.58" y="346.53" width="220" height="219"/></clipPath><clipPath id="clip-path-27" transform="translate(-181.58 -201.5)"><rect class="cls-2" x="300.58" y="455.53" width="112" height="80"/></clipPath><clipPath id="clip-path-34" transform="translate(-181.58 -201.5)"><path class="cls-1" d="M186.58,455.53v-166a28,28,0,0,1,28-28h166v65a32,32,0,1,0,0,64v65h-65a32,32,0,0,1-64,.52v-.52Z"/></clipPath><clipPath id="clip-path-35" transform="translate(-181.58 -201.5)"><rect class="cls-2" x="181.58" y="256.53" width="309" height="309"/></clipPath><clipPath id="clip-path-36" transform="translate(-181.58 -201.5)"><rect class="cls-2" x="186.58" y="261.53" width="194" height="226"/></clipPath><clipPath id="clip-path-40" transform="translate(-181.58 -201.5)"><rect class="cls-2" x="301.58" y="376.53" width="79" height="111"/></clipPath><clipPath id="clip-path-49" transform="translate(-181.58 -201.5)"><rect class="cls-2" x="349.58" y="412.53" width="31" height="40"/></clipPath><clipPath id="clip-path-50" transform="translate(-181.58 -201.5)"><path class="cls-1" d="M574.58,261.53h166a28,28,0,0,1,28,28v166h-65a32,32,0,0,0-64,0h-65v-65a32,32,0,0,1,0-64Z"/></clipPath><clipPath id="clip-path-51" transform="translate(-181.58 -201.5)"><rect class="cls-2" x="465.58" y="256.53" width="308" height="309"/></clipPath><clipPath id="clip-path-52" transform="translate(-181.58 -201.5)"><rect class="cls-2" x="542.58" y="261.53" width="226" height="194"/></clipPath><clipPath id="clip-path-53" transform="translate(-181.58 -201.5)"><circle class="cls-2" cx="575.08" cy="456.03" r="79.5"/></clipPath><clipPath id="clip-path-55" transform="translate(-181.58 -201.5)"><rect class="cls-2" x="465.58" y="346.53" width="219" height="219"/></clipPath><clipPath id="clip-path-56" transform="translate(-181.58 -201.5)"><rect class="cls-2" x="542.58" y="376.53" width="112" height="79"/></clipPath><clipPath id="clip-path-57" transform="translate(-181.58 -201.5)"><path class="cls-1" d="M621.23,521.17q4.8-25.63-7.45-28.34a112.3,112.3,0,0,0-23-2.8l-1.92-29.47q14.45-35.1,6-38.56c-8.43-3.48-14.86-8.6-29.37-3.48q-14.52,5.13-16.4,15.55,3.21,38,8.73,38t23.42-5.8q-11.75,7.88-15.75,7.88L562.05,490q-24.91,7.91-27.3,15.06t-6,36.62l88.47-.53Z"/></clipPath><clipPath id="clip-path-59" transform="translate(-181.58 -201.5)"><path class="cls-1" d="M574.45,438.47q-9.68-2.34-14.52-2.34c-6.92,0-9.91,2.48-10.2,1.44-.66-2.36-2.16-6.07,2.85-7.87s13.21-1.78,16.56.89A17.59,17.59,0,0,1,574.45,438.47Z"/></clipPath><clipPath id="clip-path-62" transform="translate(-181.58 -201.5)"><path class="cls-1" d="M571.51,435.9c-8.29-5.38-24.57-.32-26.18-5.65s13.76-16.72,26.18-16.72c10.55,0,20.8-.07,24.24,2.06s-.35,5.88,4.76,7.09-2.36,29.27-15.35,26.43S579.8,441.29,571.51,435.9Z"/></clipPath><clipPath id="clip-path-64" transform="translate(-181.58 -201.5)"><rect class="cls-2" x="539.58" y="407.53" width="68" height="47"/></clipPath><clipPath id="clip-path-65" transform="translate(-181.58 -201.5)"><rect class="cls-2" x="543.58" y="412.53" width="63" height="40"/></clipPath><clipPath id="clip-path-66" transform="translate(-181.58 -201.5)"><path class="cls-1" d="M582.83,444.15q1.35-5.68,7.24-5.68c5.89,0,9,1.37,8.68,7.11s-.08,10.27-8.31,10.27Q582.22,455.85,582.83,444.15Z"/></clipPath></defs><g id="top-left"><g class="cls-4"><line class="cls-5" x1="23.42" y1="236" x2="23.42"/></g></g><g id="bottom-left"><g class="cls-6"><line class="cls-7" x1="23.42" y1="398" x2="23.42" y2="194"/></g></g><g id="Bottom-Right"><g class="cls-8"><g class="cls-9"><g class="cls-10"><g class="cls-11"><rect class="cls-5" x="194" y="217.03" width="204" height="236"/><circle class="cls-12" cx="199.5" cy="254.53" r="79.5"/></g><g class="cls-13"><g class="cls-11"><g class="cls-9"><g class="cls-14"><g class="cls-15"><rect class="cls-16" x="115" y="170.03" width="169" height="169"/><circle class="cls-12" cx="199.5" cy="254.53" r="79.5"/></g><g class="cls-17"><g class="cls-15"><rect class="cls-18" x="148.15" y="209.86" width="103.85" height="135.35"/></g></g><g class="cls-19"><g class="cls-15"><rect class="cls-20" x="168.41" y="221.95" width="35.46" height="20.02"/></g></g><g class="cls-21"><g class="cls-15"><g class="cls-9"><g class="cls-22"><g class="cls-23"><rect x="164.64" y="207.02" width="66.91" height="45.79"/></g></g></g></g></g><g class="cls-24"><g class="cls-15"><rect class="cls-18" x="202.2" y="231.97" width="25.99" height="27.38"/></g></g><g class="cls-15"><path class="cls-25" d="M397.4,443.08q-6.22,2.31-4.15,6.32" transform="translate(-181.58 -201.5)"/><polyline class="cls-25" points="202.92 297.29 194.36 303.17 190.19 295.02"/><path class="cls-25" d="M394.64,491q-9.75,2.76-24.88,1.38" transform="translate(-181.58 -201.5)"/><path class="cls-26" d="M403.15,533.13q-.63-21.46,5.15-26.54" transform="translate(-181.58 -201.5)"/></g></g></g></g></g></g></g></g></g><g id="Bottom-Left-2" data-name="Bottom-Left"><g class="cls-27"><g class="cls-9"><g class="cls-28"><g class="cls-29"><rect class="cls-7" y="249.03" width="236" height="204"/><circle class="cls-12" cx="199.5" cy="254.53" r="79.5"/></g><g class="cls-13"><g class="cls-29"><g class="cls-9"><g class="cls-30"><g class="cls-31"><rect class="cls-16" x="115" y="170.03" width="169" height="169"/><circle class="cls-12" cx="199.5" cy="254.53" r="79.5"/></g><g class="cls-17"><g class="cls-31"><rect class="cls-18" x="148.15" y="209.86" width="103.85" height="135.35"/></g></g><g class="cls-31"><path class="cls-25" d="M363.3,442.16q-2.52,8.2-2.73,10.55a5.39,5.39,0,0,0,1.37,4.19" transform="translate(-181.58 -201.5)"/></g><g class="cls-24"><g class="cls-31"><rect class="cls-18" x="202.2" y="231.97" width="25.99" height="27.38"/></g></g><g class="cls-31"><polyline class="cls-25" points="202.92 297.29 194.36 303.17 190.19 295.02"/><path class="cls-25" d="M394.64,491q-9.75,2.76-24.88,1.38" transform="translate(-181.58 -201.5)"/><path class="cls-26" d="M403.15,533.13q-.63-21.46,5.15-26.54" transform="translate(-181.58 -201.5)"/></g></g></g></g></g></g></g></g></g><g id="Top-Left-2" data-name="Top-Left"><g class="cls-32"><g class="cls-9"><g class="cls-33"><g class="cls-34"><rect class="cls-5" y="55.03" width="204" height="236"/><circle class="cls-12" cx="199.5" cy="254.53" r="79.5"/></g><g class="cls-13"><g class="cls-34"><g class="cls-9"><g class="cls-14"><g class="cls-35"><rect class="cls-16" x="115" y="170.03" width="169" height="169"/><circle class="cls-12" cx="199.5" cy="254.53" r="79.5"/></g><g class="cls-17"><g class="cls-35"><rect class="cls-18" x="148.15" y="209.86" width="103.85" height="135.35"/></g></g><g class="cls-19"><g class="cls-35"><rect class="cls-20" x="168.41" y="221.95" width="35.46" height="20.02"/></g></g><g class="cls-35"><path class="cls-25" d="M363.3,442.16q-2.52,8.2-2.73,10.55a5.39,5.39,0,0,0,1.37,4.19" transform="translate(-181.58 -201.5)"/></g><g class="cls-21"><g class="cls-35"><g class="cls-9"><g class="cls-22"><g class="cls-36"><rect x="164.64" y="207.02" width="66.91" height="45.79"/></g></g></g></g></g></g></g></g></g></g></g></g></g><g id="Top-Right"><g class="cls-37"><g class="cls-9"><g class="cls-38"><g class="cls-39"><rect class="cls-7" x="356" y="55.03" width="236" height="204"/><circle class="cls-12" cx="393.5" cy="254.53" r="79.5"/></g><g class="cls-40"><g class="cls-39"><g class="cls-9"><g class="cls-41"><g class="cls-42"><rect class="cls-16" x="309" y="170.03" width="169" height="169"/><circle class="cls-12" cx="393.5" cy="254.53" r="79.5"/></g><g class="cls-43"><g class="cls-42"><rect class="cls-18" x="342.15" y="209.86" width="103.85" height="135.35"/></g></g><g class="cls-44"><g class="cls-42"><rect class="cls-20" x="362.41" y="221.95" width="35.46" height="20.02"/></g></g><g class="cls-42"><path class="cls-25" d="M557.3,442.16q-2.52,8.2-2.73,10.55a5.39,5.39,0,0,0,1.37,4.19" transform="translate(-181.58 -201.5)"/></g><g class="cls-45"><g class="cls-42"><g class="cls-9"><g class="cls-46"><g class="cls-47"><rect x="358.64" y="207.02" width="66.91" height="45.79"/></g></g></g></g></g><g class="cls-48"><g class="cls-42"><rect class="cls-18" x="396.2" y="231.97" width="25.99" height="27.38"/></g></g><g class="cls-42"><path class="cls-25" d="M591.4,443.08q-6.23,2.31-4.15,6.32" transform="translate(-181.58 -201.5)"/></g></g></g></g></g></g></g></g></g></svg>