<?xml version="1.0" encoding="UTF-8"?>
<svg width="130px" height="107px" viewBox="0 0 130 107" version="1.1" xmlns="http://www.w3.org/2000/svg" xmlns:xlink="http://www.w3.org/1999/xlink">
    <!-- Generator: Sketch 58 (84663) - https://sketch.com -->
    <title>Request</title>
    <desc>Created with Sketch.</desc>
    <g id="Page-1" stroke="none" stroke-width="1" fill="none" fill-rule="evenodd">
        <path d="M121,0 C125.970563,-9.7425707e-15 130,4.02943725 130,9 L130,79.4504722 C130,84.421035 125.970563,88.4504722 121,88.4504722 L84.07,88.45 L65.5462185,106.852655 L47.022,88.45 L9,88.4504722 C4.02943725,88.4504722 6.08718376e-16,84.421035 0,79.4504722 L0,9 C-6.08718376e-16,4.02943725 4.02943725,9.13077564e-16 9,0 L121,0 Z M38,13 C28.9267505,13 21.5714286,20.5591923 21.5714286,29.8839286 C21.5714286,35.9799448 24.7149817,41.3213943 29.4277718,44.2895833 C19.3766279,49.2955609 15.1071614,63.277039 15.0019952,73.6094111 L15,74 L61,74 L60.9976637,73.5988644 C60.8792397,63.3892584 56.2551291,49.6226602 46.2778263,44.4711177 C51.1532756,41.5426262 54.4285714,36.1063723 54.4285714,29.8839286 C54.4285714,20.5591923 47.0732495,13 38,13 Z M101.613281,21.875 L94.9335938,21.875 C93.9960891,24.4922006 92.2675907,26.7822167 89.7480469,28.7451172 C87.228503,30.7080176 84.894542,32.0410121 82.7460938,32.7441406 L82.7460938,32.7441406 L82.7460938,40.2148438 C86.8281454,38.8671808 90.3730318,36.7871234 93.3808594,33.9746094 L93.3808594,33.9746094 L93.3808594,65 L101.613281,65 L101.613281,21.875 Z" id="Request" fill="#FFFFFF"></path>
    </g>
</svg>